<?xml version="1.0" encoding="UTF-8"?>
<svg id="Layer_1" data-name="Layer 1" xmlns="http://www.w3.org/2000/svg" viewBox="0 0 150.28 40">
  <defs>
    <style>
      .cls-1 {
        fill: #231f20;
        stroke-width: 0px;
      }
    </style>
  </defs>
  <g>
    <path class="cls-1" d="m14.36,4.79c1.06,0,2.06.12,3.01.36.95.24,1.78.61,2.48,1.11s1.27,1.14,1.69,1.92c.42.78.63,1.71.63,2.77,0,1.5-.42,2.8-1.26,3.91-.84,1.1-2.09,1.81-3.74,2.12v.07c.84.11,1.54.31,2.09.61.55.3,1,.68,1.35,1.14.35.46.6,1,.76,1.61.16.61.26,1.26.31,1.97.02.4.05.88.07,1.46.02.57.07,1.15.14,1.74.07.58.19,1.14.34,1.66.16.52.37.92.63,1.21h-2.7c-.14-.22-.26-.49-.34-.81s-.14-.65-.18-.99c-.04-.34-.07-.68-.09-1.01-.02-.33-.05-.62-.07-.86-.05-.84-.13-1.67-.23-2.5-.11-.83-.34-1.57-.68-2.22-.35-.65-.85-1.18-1.51-1.57-.66-.4-1.57-.57-2.72-.53H5.04v10.5h-2.45V4.79h11.77Zm-.18,11.23c.74,0,1.45-.1,2.12-.31.67-.21,1.26-.51,1.76-.91.5-.4.91-.88,1.21-1.44s.45-1.21.45-1.94c0-1.46-.46-2.6-1.37-3.44-.91-.84-2.3-1.26-4.18-1.26H5.04v9.3h9.14Z"/>
    <path class="cls-1" d="m28.33,4.79v23.64h-2.45V4.79h2.45Z"/>
    <path class="cls-1" d="m52.99,28.44l-.32-4.3h-.07c-.43.84-.97,1.56-1.6,2.17-.64.61-1.34,1.1-2.11,1.49-.77.39-1.59.67-2.47.84-.88.18-1.78.26-2.72.26-2.02,0-3.79-.34-5.31-1.01s-2.79-1.57-3.8-2.7-1.76-2.43-2.27-3.91c-.5-1.48-.76-3.04-.76-4.67s.25-3.19.76-4.67c.5-1.48,1.26-2.79,2.27-3.92,1.01-1.14,2.27-2.04,3.8-2.72,1.52-.67,3.29-1.01,5.31-1.01,1.34,0,2.62.17,3.82.5s2.27.83,3.2,1.49c.94.66,1.73,1.48,2.38,2.45.65.97,1.09,2.11,1.33,3.41h-2.45c-.07-.68-.32-1.37-.74-2.07-.42-.7-.98-1.33-1.69-1.9-.71-.57-1.55-1.04-2.54-1.41s-2.09-.55-3.31-.55c-1.71,0-3.17.3-4.39.89-1.22.6-2.23,1.39-3.01,2.37-.78.98-1.36,2.09-1.73,3.33-.37,1.24-.56,2.51-.56,3.81s.19,2.54.56,3.79c.37,1.25.95,2.36,1.73,3.34.78.98,1.78,1.77,3.01,2.37,1.22.6,2.69.89,4.39.89,1.42,0,2.68-.22,3.8-.65,1.12-.43,2.06-1.03,2.83-1.8.77-.77,1.34-1.69,1.73-2.75s.56-2.22.54-3.48h-8.75v-1.92h10.91v12.02h-1.76Z"/>
    <path class="cls-1" d="m61.02,4.79v10.27h15.26V4.79h2.45v23.64h-2.45v-11.46h-15.26v11.46h-2.45V4.79h2.45Z"/>
    <path class="cls-1" d="m100.62,4.79v1.92h-8.96v21.72h-2.45V6.71h-8.93v-1.92h20.34Z"/>
  </g>
  <g>
    <path class="cls-1" d="m113.09,4.73c1.01,0,1.95.12,2.83.36.88.24,1.64.61,2.3,1.11s1.18,1.11,1.55,1.84c.37.73.56,1.59.56,2.58,0,.71-.14,1.38-.41,2.02-.28.64-.65,1.2-1.13,1.69-.48.49-1.05.88-1.71,1.18-.66.3-1.39.47-2.18.51v.07c.84.02,1.64.17,2.39.45.76.28,1.42.66,1.98,1.16.56.5,1.01,1.1,1.35,1.82.34.72.5,1.53.5,2.43,0,1.06-.21,1.99-.63,2.8-.42.81-1,1.47-1.75,2-.74.53-1.64.93-2.68,1.21-1.04.28-2.18.41-3.4.41h-10.62V4.73h11.05Zm0,10.99c.86,0,1.69-.1,2.47-.31.78-.21,1.47-.53,2.07-.96.6-.43,1.08-.97,1.44-1.61.36-.64.54-1.38.54-2.22,0-.9-.17-1.68-.5-2.33-.34-.65-.8-1.19-1.39-1.62-.59-.43-1.28-.75-2.07-.96s-1.64-.31-2.56-.31h-10.33v10.33h10.33Zm-.11,11.99c1.06,0,2.03-.12,2.93-.35.9-.23,1.68-.58,2.34-1.06s1.18-1.07,1.57-1.79c.38-.72.58-1.56.58-2.53,0-1.04-.21-1.91-.63-2.62-.42-.71-.97-1.28-1.66-1.72-.68-.44-1.46-.76-2.34-.96s-1.77-.3-2.68-.3h-10.33v11.32h10.22Z"/>
    <path class="cls-1" d="m125.01,4.73v23.64h-.72V4.73h.72Z"/>
    <path class="cls-1" d="m129.98,4.73l17.57,22.81h.07V4.73h.72v23.64h-1.08l-17.57-22.81h-.07v22.81h-.72V4.73h1.08Z"/>
  </g>
</svg>